<svg xmlns="http://www.w3.org/2000/svg" width="33.131" height="34.24" viewBox="0 0 33.131 34.24"><defs><style>.a,.c{fill:#fff;}.b{fill:#d3820f;}.c{font-size:10.425px;font-family:Lato-Regular, Lato;letter-spacing:0.1em;}</style></defs><g transform="translate(840.313 -3176.996)"><path class="a" d="M-810.648,3186.371a2.98,2.98,0,0,0-2.283-1.008h-21.844l-.219-1.649c-.237-1.775-1.474-3.166-2.815-3.166h-1.6a.9.9,0,0,0-.9.9.9.9,0,0,0,.9.9h1.6c.289,0,.9.61,1.032,1.606l2.574,19.3a3.634,3.634,0,0,0,1.231,2.243,3.723,3.723,0,0,0,1.725.858,3.29,3.29,0,0,0-.4,1.573,3.311,3.311,0,0,0,3.307,3.307,3.31,3.31,0,0,0,3.306-3.307,3.286,3.286,0,0,0-.365-1.508h4.711a3.288,3.288,0,0,0-.366,1.508,3.311,3.311,0,0,0,3.307,3.307,3.311,3.311,0,0,0,3.307-3.307,3.288,3.288,0,0,0-.366-1.508h2.355a.9.9,0,0,0,.9-.9.9.9,0,0,0-.9-.9h-18.136a1.93,1.93,0,0,1-1.835-1.606l-.188-1.411h17.752a3.639,3.639,0,0,0,2.386-.923,3.644,3.644,0,0,0,1.231-2.244l1.289-9.672A2.978,2.978,0,0,0-810.648,3186.371Zm-7.1,20.05a1.51,1.51,0,0,1,1.508,1.508,1.51,1.51,0,0,1-1.508,1.509,1.511,1.511,0,0,1-1.509-1.509A1.511,1.511,0,0,1-817.746,3206.421Zm-10.593,0a1.51,1.51,0,0,1,1.508,1.508,1.51,1.51,0,0,1-1.508,1.509,1.511,1.511,0,0,1-1.509-1.509A1.511,1.511,0,0,1-828.339,3206.421Zm16.606-17.892-.541,4.056h-.018l-.73,5.617a1.932,1.932,0,0,1-1.835,1.606h-17.992l-.953-7.223h-.01l-.723-5.424h21.6a1.208,1.208,0,0,1,.93.394A1.208,1.208,0,0,1-811.733,3188.529Z"/><circle class="b" cx="7.75" cy="7.75" r="7.75" transform="translate(-822.682 3176.996)"/><text class="c" transform="translate(-814.953 3188.573)"><tspan x="-3.023" y="0">0</tspan></text></g></svg>