<svg xmlns="http://www.w3.org/2000/svg" width="34.664" height="34.664" viewBox="0 0 34.664 34.664"><defs><style>.a{fill:#d3820f;}</style></defs><path class="a" d="M-1061.55,8168.19h11.307v-12.322h-4.062v-4.062h4.062v-5.078a5.084,5.084,0,0,1,5.078-5.078h5.078v4.062h-4.063a2.034,2.034,0,0,0-2.031,2.032v4.062h5.91l-.677,4.062h-5.233v12.322h9.14a5.084,5.084,0,0,0,5.078-5.078V8138.6a5.084,5.084,0,0,0-5.078-5.078h-24.509a5.084,5.084,0,0,0-5.077,5.078v24.508A5.083,5.083,0,0,0-1061.55,8168.19Zm-3.046-29.586a3.05,3.05,0,0,1,3.046-3.047h24.509a3.05,3.05,0,0,1,3.047,3.047v24.508a3.051,3.051,0,0,1-3.047,3.047h-7.109v-8.26h4.923l1.354-8.124h-6.277v-2.031h6.094v-8.125h-7.109a7.117,7.117,0,0,0-7.109,7.109v3.047h-4.062v8.124h4.062v8.26h-9.276a3.051,3.051,0,0,1-3.046-3.047Z" transform="translate(1066.627 -8133.526)"/></svg>