<svg xmlns="http://www.w3.org/2000/svg" width="34.664" height="34.664" viewBox="0 0 34.664 34.664"><defs><style>.a{fill:#d3820f;}</style></defs><g transform="translate(1121.36 -8133.526)"><path class="a" d="M-1091.773,8133.526h-24.509a5.084,5.084,0,0,0-5.078,5.078v24.508a5.083,5.083,0,0,0,5.078,5.078h24.509a5.082,5.082,0,0,0,5.077-5.078V8138.6A5.083,5.083,0,0,0-1091.773,8133.526Zm3.046,29.586a3.051,3.051,0,0,1-3.046,3.047h-24.509a3.051,3.051,0,0,1-3.047-3.047V8138.6a3.05,3.05,0,0,1,3.047-3.047h24.509a3.05,3.05,0,0,1,3.046,3.047Z"/></g></svg>