<svg xmlns="http://www.w3.org/2000/svg" width="324.196" height="79.704" viewBox="0 0 324.196 79.704"><defs><style>.a{fill:#1a1818;stroke:#d3820f;stroke-miterlimit:10;stroke-width:5.704px;}.b{fill:#d3820f;}.c{fill:#fff;}</style></defs><g transform="translate(1637.831 -3558.597)"><rect class="a" width="318.492" height="74" transform="translate(-1634.979 3561.449)"/><rect class="b" width="5.918" height="18.865" transform="translate(-1392.588 3561.98)"/><path class="b" d="M-1366.943,3634.074l-45.371.179,10.491-26.84h24.389Z"/><path class="c" d="M-1600.269,3610.323h12.438v4.778h-18.227v-31.118h5.789Z"/><path class="c" d="M-1575.046,3615.1h-5.808v-31.118h5.808Z"/><path class="c" d="M-1545.941,3614.638a19.767,19.767,0,0,1-5.733.807,19.17,19.17,0,0,1-6.9-1.183,15.391,15.391,0,0,1-5.27-3.293,14.394,14.394,0,0,1-3.368-5.035,16.878,16.878,0,0,1-1.186-6.392,17.6,17.6,0,0,1,1.141-6.434,14.564,14.564,0,0,1,3.239-5.036,14.461,14.461,0,0,1,5.089-3.271,18.418,18.418,0,0,1,6.716-1.162,19.579,19.579,0,0,1,3.539.3,17.82,17.82,0,0,1,3.057.828,13.258,13.258,0,0,1,2.57,1.28,15.4,15.4,0,0,1,2.132,1.658l-1.659,2.625a1.581,1.581,0,0,1-1.011.764,1.811,1.811,0,0,1-1.357-.313l-1.417-.817a9.148,9.148,0,0,0-1.584-.71,12.83,12.83,0,0,0-1.958-.5,14.443,14.443,0,0,0-2.508-.193,10.737,10.737,0,0,0-4.164.775,8.8,8.8,0,0,0-3.172,2.216,9.976,9.976,0,0,0-2.023,3.465,13.589,13.589,0,0,0-.712,4.519,13.856,13.856,0,0,0,.765,4.767,10.056,10.056,0,0,0,2.152,3.55,9.139,9.139,0,0,0,3.346,2.216,11.922,11.922,0,0,0,4.368.765,12.135,12.135,0,0,0,3.077-.356,14.266,14.266,0,0,0,2.648-.979v-5.659h-3.917a1.175,1.175,0,0,1-.872-.312,1.039,1.039,0,0,1-.311-.764V3599.5h10.329v12.59A16.492,16.492,0,0,1-1545.941,3614.638Z"/><path class="c" d="M-1507.516,3615.1h-5.812v-13.6h-14.613v13.6h-5.808v-31.118h5.808v13.385h14.613v-13.385h5.812Z"/><path class="c" d="M-1477.3,3583.983v4.756h-9.384V3615.1h-5.789v-26.362h-9.381v-4.756Z"/><path class="c" d="M-1444.4,3589.643a1.971,1.971,0,0,1-.549.657,1.22,1.22,0,0,1-.721.2,1.863,1.863,0,0,1-.978-.334q-.53-.333-1.26-.742a10.208,10.208,0,0,0-1.71-.742,7.167,7.167,0,0,0-2.314-.334,6.913,6.913,0,0,0-2.107.29,4.443,4.443,0,0,0-1.519.807,3.2,3.2,0,0,0-.913,1.238,4.039,4.039,0,0,0-.3,1.581,2.747,2.747,0,0,0,.614,1.83,5.1,5.1,0,0,0,1.625,1.248,15.12,15.12,0,0,0,2.3.925q1.29.409,2.645.871a24.848,24.848,0,0,1,2.648,1.076,9.223,9.223,0,0,1,2.3,1.55,7.049,7.049,0,0,1,1.626,2.292,7.955,7.955,0,0,1,.613,3.292,10.694,10.694,0,0,1-.723,3.949,9.075,9.075,0,0,1-2.107,3.206,9.941,9.941,0,0,1-3.39,2.152,12.463,12.463,0,0,1-4.584.786,14.667,14.667,0,0,1-2.926-.291,15.314,15.314,0,0,1-2.765-.828,14.671,14.671,0,0,1-2.486-1.292,11.8,11.8,0,0,1-2.065-1.678l1.7-2.776a1.82,1.82,0,0,1,.56-.505,1.417,1.417,0,0,1,.732-.2,2.063,2.063,0,0,1,1.163.441q.621.442,1.485.98a11.611,11.611,0,0,0,2.012.979,7.737,7.737,0,0,0,2.765.441,5.677,5.677,0,0,0,3.831-1.174,4.214,4.214,0,0,0,1.356-3.366,3.128,3.128,0,0,0-.614-2,4.981,4.981,0,0,0-1.625-1.3,12.219,12.219,0,0,0-2.3-.894q-1.291-.366-2.626-.8a22.64,22.64,0,0,1-2.625-1.032,8.559,8.559,0,0,1-2.3-1.571,7.141,7.141,0,0,1-1.622-2.421,9.228,9.228,0,0,1-.614-3.583,8.459,8.459,0,0,1,.678-3.314,8.561,8.561,0,0,1,1.967-2.862,9.666,9.666,0,0,1,3.186-2,11.694,11.694,0,0,1,4.346-.753,14.54,14.54,0,0,1,5.081.861,11.476,11.476,0,0,1,3.959,2.409Z"/><path class="c" d="M-1432.144,3584.015a1.567,1.567,0,0,1,.473.13,1.575,1.575,0,0,1,.4.279,4.421,4.421,0,0,1,.429.485l16.314,20.83c-.045-.5-.079-1-.11-1.484s-.042-.94-.042-1.356v-18.916h5.1V3615.1h-2.97a2.623,2.623,0,0,1-1.152-.226,2.676,2.676,0,0,1-.891-.765l-16.249-20.722c.045.459.076.915.1,1.366s.031.864.031,1.237v19.11h-5.1v-31.118h3.035A5.55,5.55,0,0,1-1432.144,3584.015Z"/><path class="c" d="M-1369.664,3615.1v-31.118h10.718a20.474,20.474,0,0,1,5.228.581,9.963,9.963,0,0,1,3.562,1.657,6.44,6.44,0,0,1,2.034,2.6,8.747,8.747,0,0,1,.645,3.443,6.773,6.773,0,0,1-.323,2.1,6.094,6.094,0,0,1-1,1.872,7.521,7.521,0,0,1-1.72,1.582,10.435,10.435,0,0,1-2.486,1.2q6.409,1.443,6.411,6.93a8.786,8.786,0,0,1-.754,3.658,8.032,8.032,0,0,1-2.194,2.894,10.428,10.428,0,0,1-3.55,1.9,15.473,15.473,0,0,1-4.819.69Zm5.789-17.646h4.607a7.746,7.746,0,0,0,4.486-1.076,3.9,3.9,0,0,0,1.516-3.421,4.06,4.06,0,0,0-1.376-3.465,7.2,7.2,0,0,0-4.3-1.034h-4.929Zm0,4v9.123h5.853a8.237,8.237,0,0,0,2.713-.387,4.694,4.694,0,0,0,1.754-1.032,3.793,3.793,0,0,0,.947-1.508,5.688,5.688,0,0,0,.289-1.828,4.849,4.849,0,0,0-.323-1.819,3.408,3.408,0,0,0-1.011-1.377,4.744,4.744,0,0,0-1.774-.871,9.9,9.9,0,0,0-2.617-.3Z"/><path class="c" d="M-1374.58,3614.742h.007l-3-7.627h-.006l-9.086-23.132h-5.9l-9.014,22.908h-.005l-3,7.627h.005l-.23.583h4.52a1.86,1.86,0,0,0,1.227-.409,2.049,2.049,0,0,0,.667-.9l.19-.518c.009-.022.027-.042.035-.065l2.119-5.791h12.859l2.2,6.015.005.005.129.354a2.332,2.332,0,0,0,.712.936,1.9,1.9,0,0,0,1.225.377h4.477Zm-20-11.392,3.789-10.307q.277-.711.569-1.657c.2-.631.392-1.313.594-2.045q.3,1.1.6,2.035t.58,1.624l3.788,10.35Z"/></g></svg>