<svg xmlns="http://www.w3.org/2000/svg" width="30.161" height="30.155" viewBox="0 0 30.161 30.155"><defs><style>.a{fill:#fff;}</style></defs><path class="a" d="M-918.187,3181.231a11.054,11.054,0,0,0-11.042,11.042,11.066,11.066,0,0,0,2.5,7l.092.111-.1.1-10.281,10.281a.959.959,0,0,0,0,1.351.977.977,0,0,0,1.35,0l10.378-10.379.111.092a11.068,11.068,0,0,0,7,2.5,11.059,11.059,0,0,0,11.046-11.047A11.059,11.059,0,0,0-918.187,3181.231Zm.005,20.183a9.147,9.147,0,0,1-9.137-9.136,9.147,9.147,0,0,1,9.137-9.137,9.147,9.147,0,0,1,9.137,9.137A9.147,9.147,0,0,1-918.182,3201.414Z" transform="translate(937.302 -3181.231)"/></svg>