<svg xmlns="http://www.w3.org/2000/svg" width="20.032" height="43.327" viewBox="0 0 20.032 43.327"><defs><style>.a{fill:#d3820f;}</style></defs><g transform="translate(850.264 -8167.868)"><path class="a" d="M-841.371,8168.516l-8.719,15.1a1.3,1.3,0,0,0,.474,1.77,1.3,1.3,0,0,0,1.771-.474l6.3-10.917v35.9a1.3,1.3,0,0,0,1.3,1.3,1.3,1.3,0,0,0,1.3-1.3v-35.893l6.3,10.908a1.3,1.3,0,0,0,1.771.474,1.3,1.3,0,0,0,.648-1.123,1.288,1.288,0,0,0-.174-.647l-8.719-15.1a1.3,1.3,0,0,0-1.123-.648A1.3,1.3,0,0,0-841.371,8168.516Z"/></g></svg>